G04 EAGLE Gerber RS-274X export*
G75*
%MOMM*%
%FSLAX34Y34*%
%LPD*%
%INBottom Copper*%
%IPPOS*%
%AMOC8*
5,1,8,0,0,1.08239X$1,22.5*%
G01*
%ADD10C,0.756400*%
%ADD11C,0.508000*%
%ADD12C,0.254000*%

G36*
X338688Y10176D02*
X338688Y10176D01*
X338807Y10183D01*
X338845Y10196D01*
X338886Y10201D01*
X338996Y10244D01*
X339109Y10281D01*
X339144Y10303D01*
X339181Y10318D01*
X339277Y10387D01*
X339378Y10451D01*
X339406Y10481D01*
X339439Y10504D01*
X339515Y10596D01*
X339596Y10683D01*
X339616Y10718D01*
X339641Y10749D01*
X339692Y10857D01*
X339750Y10961D01*
X339760Y11001D01*
X339777Y11037D01*
X339799Y11154D01*
X339829Y11269D01*
X339833Y11329D01*
X339837Y11349D01*
X339835Y11370D01*
X339839Y11430D01*
X339839Y408570D01*
X339824Y408688D01*
X339817Y408807D01*
X339804Y408845D01*
X339799Y408886D01*
X339756Y408996D01*
X339719Y409109D01*
X339697Y409144D01*
X339682Y409181D01*
X339613Y409277D01*
X339549Y409378D01*
X339519Y409406D01*
X339496Y409439D01*
X339404Y409515D01*
X339317Y409596D01*
X339282Y409616D01*
X339251Y409641D01*
X339143Y409692D01*
X339039Y409750D01*
X338999Y409760D01*
X338963Y409777D01*
X338846Y409799D01*
X338731Y409829D01*
X338671Y409833D01*
X338651Y409837D01*
X338630Y409835D01*
X338570Y409839D01*
X11430Y409839D01*
X11312Y409824D01*
X11193Y409817D01*
X11155Y409804D01*
X11114Y409799D01*
X11004Y409756D01*
X10891Y409719D01*
X10856Y409697D01*
X10819Y409682D01*
X10723Y409613D01*
X10622Y409549D01*
X10594Y409519D01*
X10561Y409496D01*
X10485Y409404D01*
X10404Y409317D01*
X10384Y409282D01*
X10359Y409251D01*
X10308Y409143D01*
X10250Y409039D01*
X10240Y408999D01*
X10223Y408963D01*
X10201Y408846D01*
X10171Y408731D01*
X10167Y408671D01*
X10163Y408651D01*
X10165Y408630D01*
X10161Y408570D01*
X10161Y11430D01*
X10176Y11312D01*
X10183Y11193D01*
X10196Y11155D01*
X10201Y11114D01*
X10244Y11004D01*
X10281Y10891D01*
X10303Y10856D01*
X10318Y10819D01*
X10387Y10723D01*
X10451Y10622D01*
X10481Y10594D01*
X10504Y10561D01*
X10596Y10485D01*
X10683Y10404D01*
X10718Y10384D01*
X10749Y10359D01*
X10857Y10308D01*
X10961Y10250D01*
X11001Y10240D01*
X11037Y10223D01*
X11154Y10201D01*
X11269Y10171D01*
X11329Y10167D01*
X11349Y10163D01*
X11370Y10165D01*
X11430Y10161D01*
X338570Y10161D01*
X338688Y10176D01*
G37*
%LPC*%
G36*
X176944Y17693D02*
X176944Y17693D01*
X174994Y18501D01*
X173501Y19994D01*
X172693Y21944D01*
X172693Y24056D01*
X173501Y26006D01*
X174994Y27499D01*
X175152Y27564D01*
X175177Y27579D01*
X175205Y27588D01*
X175315Y27657D01*
X175428Y27722D01*
X175449Y27742D01*
X175474Y27758D01*
X175563Y27853D01*
X175656Y27943D01*
X175672Y27968D01*
X175692Y27990D01*
X175755Y28104D01*
X175823Y28214D01*
X175831Y28242D01*
X175846Y28268D01*
X175878Y28394D01*
X175916Y28518D01*
X175918Y28548D01*
X175925Y28576D01*
X175935Y28737D01*
X175935Y133034D01*
X175923Y133133D01*
X175920Y133231D01*
X175903Y133290D01*
X175895Y133350D01*
X175859Y133442D01*
X175831Y133537D01*
X175801Y133589D01*
X175778Y133645D01*
X175720Y133725D01*
X175670Y133811D01*
X175604Y133886D01*
X175592Y133903D01*
X175582Y133911D01*
X175563Y133932D01*
X175501Y133994D01*
X174693Y135944D01*
X174693Y138056D01*
X175501Y140006D01*
X175564Y140068D01*
X175624Y140147D01*
X175692Y140219D01*
X175721Y140272D01*
X175758Y140320D01*
X175798Y140411D01*
X175846Y140497D01*
X175861Y140556D01*
X175885Y140612D01*
X175900Y140709D01*
X175925Y140805D01*
X175931Y140905D01*
X175935Y140926D01*
X175933Y140938D01*
X175935Y140966D01*
X175935Y236849D01*
X175932Y236878D01*
X175934Y236908D01*
X175912Y237036D01*
X175895Y237165D01*
X175885Y237192D01*
X175880Y237221D01*
X175826Y237340D01*
X175778Y237460D01*
X175761Y237484D01*
X175749Y237511D01*
X175668Y237613D01*
X175592Y237718D01*
X175569Y237736D01*
X175550Y237759D01*
X175447Y237838D01*
X175347Y237920D01*
X175320Y237933D01*
X175296Y237951D01*
X175152Y238022D01*
X173994Y238501D01*
X172501Y239994D01*
X171693Y241944D01*
X171693Y244056D01*
X172501Y246006D01*
X173994Y247499D01*
X175944Y248307D01*
X178056Y248307D01*
X180006Y247499D01*
X181499Y246006D01*
X182307Y244056D01*
X182307Y243967D01*
X182319Y243869D01*
X182322Y243770D01*
X182339Y243712D01*
X182347Y243652D01*
X182383Y243560D01*
X182411Y243465D01*
X182441Y243413D01*
X182464Y243356D01*
X182522Y243276D01*
X182572Y243191D01*
X182638Y243115D01*
X182650Y243099D01*
X182660Y243091D01*
X182678Y243070D01*
X184065Y241684D01*
X184065Y173334D01*
X184080Y173216D01*
X184087Y173097D01*
X184100Y173059D01*
X184105Y173018D01*
X184148Y172908D01*
X184185Y172795D01*
X184207Y172760D01*
X184222Y172723D01*
X184291Y172627D01*
X184355Y172526D01*
X184385Y172498D01*
X184408Y172465D01*
X184500Y172389D01*
X184587Y172308D01*
X184622Y172288D01*
X184653Y172263D01*
X184761Y172212D01*
X184865Y172154D01*
X184905Y172144D01*
X184941Y172127D01*
X185058Y172105D01*
X185173Y172075D01*
X185233Y172071D01*
X185253Y172067D01*
X185274Y172069D01*
X185334Y172065D01*
X194034Y172065D01*
X194132Y172077D01*
X194231Y172080D01*
X194290Y172097D01*
X194350Y172105D01*
X194442Y172141D01*
X194537Y172169D01*
X194589Y172199D01*
X194645Y172222D01*
X194725Y172280D01*
X194811Y172330D01*
X194886Y172396D01*
X194903Y172408D01*
X194910Y172418D01*
X194932Y172436D01*
X194994Y172499D01*
X196944Y173307D01*
X199056Y173307D01*
X201006Y172499D01*
X202039Y171466D01*
X202148Y171382D01*
X202255Y171292D01*
X202274Y171284D01*
X202290Y171271D01*
X202417Y171216D01*
X202543Y171157D01*
X202563Y171153D01*
X202582Y171145D01*
X202720Y171123D01*
X202856Y171097D01*
X202876Y171098D01*
X202896Y171095D01*
X203035Y171108D01*
X203173Y171117D01*
X203192Y171123D01*
X203212Y171125D01*
X203344Y171172D01*
X203475Y171215D01*
X203493Y171226D01*
X203512Y171233D01*
X203627Y171311D01*
X203744Y171385D01*
X203758Y171400D01*
X203775Y171411D01*
X203867Y171515D01*
X203962Y171617D01*
X203972Y171634D01*
X203985Y171650D01*
X204048Y171773D01*
X204116Y171895D01*
X204121Y171915D01*
X204130Y171933D01*
X204160Y172069D01*
X204195Y172203D01*
X204197Y172231D01*
X204200Y172243D01*
X204199Y172264D01*
X204205Y172364D01*
X204205Y203764D01*
X204193Y203862D01*
X204190Y203961D01*
X204173Y204020D01*
X204165Y204080D01*
X204129Y204172D01*
X204101Y204267D01*
X204071Y204319D01*
X204048Y204375D01*
X203990Y204455D01*
X203940Y204541D01*
X203874Y204616D01*
X203862Y204633D01*
X203852Y204640D01*
X203834Y204662D01*
X202501Y205994D01*
X201693Y207944D01*
X201693Y210056D01*
X202501Y212006D01*
X203994Y213499D01*
X205944Y214307D01*
X208056Y214307D01*
X209026Y213905D01*
X209074Y213891D01*
X209119Y213870D01*
X209227Y213850D01*
X209333Y213821D01*
X209383Y213820D01*
X209432Y213811D01*
X209541Y213817D01*
X209651Y213816D01*
X209699Y213827D01*
X209749Y213830D01*
X209853Y213864D01*
X209960Y213890D01*
X210004Y213913D01*
X210051Y213928D01*
X210144Y213987D01*
X210241Y214039D01*
X210278Y214072D01*
X210320Y214099D01*
X210395Y214179D01*
X210477Y214252D01*
X210504Y214294D01*
X210538Y214330D01*
X210591Y214426D01*
X210651Y214518D01*
X210668Y214565D01*
X210692Y214609D01*
X210719Y214715D01*
X210755Y214819D01*
X210759Y214869D01*
X210771Y214917D01*
X210781Y215077D01*
X210781Y321033D01*
X226119Y336371D01*
X233881Y336371D01*
X235890Y334362D01*
X237362Y332890D01*
X237768Y332484D01*
X237878Y332399D01*
X237985Y332310D01*
X238004Y332301D01*
X238020Y332289D01*
X238147Y332234D01*
X238273Y332174D01*
X238293Y332170D01*
X238312Y332162D01*
X238449Y332141D01*
X238586Y332114D01*
X238606Y332116D01*
X238626Y332113D01*
X238765Y332126D01*
X238903Y332134D01*
X238922Y332140D01*
X238942Y332142D01*
X239074Y332190D01*
X239205Y332232D01*
X239222Y332243D01*
X239242Y332250D01*
X239357Y332328D01*
X239474Y332402D01*
X239488Y332417D01*
X239505Y332429D01*
X239597Y332533D01*
X239692Y332634D01*
X239702Y332652D01*
X239715Y332667D01*
X239779Y332791D01*
X239846Y332913D01*
X239851Y332932D01*
X239860Y332950D01*
X239890Y333086D01*
X239925Y333220D01*
X239927Y333249D01*
X239930Y333260D01*
X239929Y333281D01*
X239935Y333381D01*
X239935Y382123D01*
X239918Y382260D01*
X239905Y382399D01*
X239898Y382418D01*
X239895Y382438D01*
X239844Y382567D01*
X239797Y382698D01*
X239786Y382715D01*
X239778Y382734D01*
X239697Y382846D01*
X239619Y382961D01*
X239603Y382975D01*
X239592Y382991D01*
X239484Y383080D01*
X239380Y383172D01*
X239362Y383181D01*
X239347Y383194D01*
X239221Y383253D01*
X239097Y383316D01*
X239077Y383321D01*
X239059Y383330D01*
X238923Y383356D01*
X238787Y383386D01*
X238766Y383386D01*
X238747Y383389D01*
X238608Y383381D01*
X238469Y383376D01*
X238449Y383371D01*
X238429Y383370D01*
X238297Y383327D01*
X238163Y383288D01*
X238146Y383278D01*
X238127Y383272D01*
X238009Y383197D01*
X237889Y383127D01*
X237868Y383108D01*
X237858Y383101D01*
X237844Y383087D01*
X237769Y383020D01*
X208436Y353688D01*
X205684Y350935D01*
X120966Y350935D01*
X120868Y350923D01*
X120769Y350920D01*
X120710Y350903D01*
X120650Y350895D01*
X120558Y350859D01*
X120463Y350831D01*
X120411Y350801D01*
X120355Y350778D01*
X120275Y350720D01*
X120189Y350670D01*
X120114Y350604D01*
X120097Y350592D01*
X120090Y350582D01*
X120068Y350564D01*
X120006Y350501D01*
X118056Y349693D01*
X115944Y349693D01*
X113994Y350501D01*
X112501Y351994D01*
X111693Y353944D01*
X111693Y356056D01*
X112501Y358006D01*
X113994Y359499D01*
X115944Y360307D01*
X118056Y360307D01*
X120006Y359499D01*
X120068Y359436D01*
X120147Y359376D01*
X120219Y359308D01*
X120272Y359279D01*
X120320Y359242D01*
X120411Y359202D01*
X120497Y359154D01*
X120556Y359139D01*
X120612Y359115D01*
X120709Y359100D01*
X120805Y359075D01*
X120905Y359069D01*
X120926Y359065D01*
X120938Y359067D01*
X120966Y359065D01*
X201791Y359065D01*
X201889Y359077D01*
X201988Y359080D01*
X202046Y359097D01*
X202106Y359105D01*
X202198Y359141D01*
X202293Y359169D01*
X202345Y359199D01*
X202402Y359222D01*
X202482Y359280D01*
X202567Y359330D01*
X202643Y359396D01*
X202659Y359408D01*
X202667Y359418D01*
X202688Y359436D01*
X238322Y395070D01*
X238382Y395148D01*
X238450Y395220D01*
X238479Y395273D01*
X238516Y395321D01*
X238556Y395412D01*
X238604Y395499D01*
X238619Y395557D01*
X238643Y395613D01*
X238658Y395711D01*
X238683Y395807D01*
X238689Y395907D01*
X238693Y395927D01*
X238691Y395939D01*
X238693Y395967D01*
X238693Y396056D01*
X239501Y398006D01*
X240994Y399499D01*
X242944Y400307D01*
X245056Y400307D01*
X247006Y399499D01*
X248499Y398006D01*
X249307Y396056D01*
X249307Y393944D01*
X248499Y391994D01*
X248436Y391932D01*
X248376Y391853D01*
X248308Y391781D01*
X248279Y391728D01*
X248242Y391680D01*
X248202Y391589D01*
X248154Y391503D01*
X248139Y391444D01*
X248115Y391388D01*
X248100Y391291D01*
X248075Y391195D01*
X248069Y391095D01*
X248065Y391074D01*
X248067Y391062D01*
X248065Y391034D01*
X248065Y304209D01*
X248077Y304111D01*
X248080Y304012D01*
X248097Y303954D01*
X248105Y303894D01*
X248141Y303802D01*
X248169Y303707D01*
X248199Y303655D01*
X248222Y303598D01*
X248280Y303518D01*
X248330Y303433D01*
X248396Y303357D01*
X248408Y303341D01*
X248418Y303333D01*
X248436Y303312D01*
X292070Y259678D01*
X292148Y259618D01*
X292220Y259550D01*
X292273Y259521D01*
X292321Y259484D01*
X292412Y259444D01*
X292499Y259396D01*
X292557Y259381D01*
X292613Y259357D01*
X292711Y259342D01*
X292807Y259317D01*
X292907Y259311D01*
X292927Y259307D01*
X292939Y259309D01*
X292967Y259307D01*
X293056Y259307D01*
X295006Y258499D01*
X296499Y257006D01*
X297307Y255056D01*
X297307Y254967D01*
X297319Y254869D01*
X297322Y254770D01*
X297339Y254712D01*
X297347Y254652D01*
X297383Y254560D01*
X297411Y254465D01*
X297441Y254413D01*
X297464Y254356D01*
X297522Y254276D01*
X297572Y254191D01*
X297638Y254115D01*
X297650Y254099D01*
X297660Y254091D01*
X297678Y254070D01*
X334065Y217684D01*
X334065Y149966D01*
X334077Y149868D01*
X334080Y149769D01*
X334097Y149710D01*
X334105Y149650D01*
X334141Y149558D01*
X334169Y149463D01*
X334199Y149411D01*
X334222Y149355D01*
X334280Y149275D01*
X334330Y149189D01*
X334396Y149114D01*
X334408Y149097D01*
X334418Y149090D01*
X334436Y149068D01*
X334499Y149006D01*
X335307Y147056D01*
X335307Y144944D01*
X334499Y142994D01*
X333006Y141501D01*
X331056Y140693D01*
X328944Y140693D01*
X326994Y141501D01*
X325501Y142994D01*
X324693Y144944D01*
X324693Y147056D01*
X325501Y149006D01*
X325564Y149068D01*
X325624Y149147D01*
X325692Y149219D01*
X325721Y149272D01*
X325758Y149320D01*
X325798Y149411D01*
X325846Y149497D01*
X325861Y149556D01*
X325885Y149612D01*
X325900Y149709D01*
X325925Y149805D01*
X325931Y149905D01*
X325935Y149926D01*
X325933Y149938D01*
X325935Y149966D01*
X325935Y213791D01*
X325923Y213889D01*
X325920Y213988D01*
X325903Y214046D01*
X325895Y214106D01*
X325859Y214198D01*
X325831Y214293D01*
X325801Y214345D01*
X325778Y214402D01*
X325720Y214482D01*
X325670Y214567D01*
X325604Y214643D01*
X325592Y214659D01*
X325582Y214667D01*
X325564Y214688D01*
X291930Y248322D01*
X291852Y248382D01*
X291780Y248450D01*
X291727Y248479D01*
X291679Y248516D01*
X291588Y248556D01*
X291501Y248604D01*
X291443Y248619D01*
X291387Y248643D01*
X291289Y248658D01*
X291193Y248683D01*
X291093Y248689D01*
X291073Y248693D01*
X291061Y248691D01*
X291033Y248693D01*
X290944Y248693D01*
X288994Y249501D01*
X287501Y250994D01*
X286693Y252944D01*
X286693Y253033D01*
X286681Y253131D01*
X286678Y253230D01*
X286661Y253288D01*
X286653Y253348D01*
X286617Y253440D01*
X286589Y253535D01*
X286559Y253587D01*
X286536Y253644D01*
X286478Y253724D01*
X286428Y253809D01*
X286362Y253885D01*
X286350Y253901D01*
X286340Y253909D01*
X286322Y253930D01*
X241537Y298714D01*
X241428Y298799D01*
X241321Y298888D01*
X241302Y298897D01*
X241286Y298909D01*
X241158Y298965D01*
X241033Y299024D01*
X241013Y299027D01*
X240994Y299035D01*
X240856Y299057D01*
X240720Y299083D01*
X240700Y299082D01*
X240680Y299085D01*
X240541Y299072D01*
X240403Y299064D01*
X240384Y299057D01*
X240364Y299055D01*
X240232Y299008D01*
X240101Y298966D01*
X240083Y298955D01*
X240064Y298948D01*
X239949Y298870D01*
X239832Y298795D01*
X239818Y298781D01*
X239801Y298769D01*
X239709Y298665D01*
X239614Y298564D01*
X239604Y298546D01*
X239591Y298531D01*
X239527Y298407D01*
X239460Y298285D01*
X239455Y298266D01*
X239446Y298248D01*
X239416Y298112D01*
X239381Y297977D01*
X239379Y297949D01*
X239376Y297937D01*
X239377Y297917D01*
X239371Y297817D01*
X239371Y249107D01*
X239383Y249009D01*
X239386Y248910D01*
X239403Y248852D01*
X239411Y248792D01*
X239447Y248700D01*
X239475Y248605D01*
X239505Y248552D01*
X239528Y248496D01*
X239586Y248416D01*
X239636Y248331D01*
X239702Y248255D01*
X239714Y248239D01*
X239724Y248231D01*
X239742Y248210D01*
X241274Y246678D01*
X241352Y246618D01*
X241424Y246550D01*
X241477Y246521D01*
X241525Y246484D01*
X241616Y246444D01*
X241703Y246396D01*
X241761Y246381D01*
X241817Y246357D01*
X241915Y246342D01*
X242011Y246317D01*
X242111Y246311D01*
X242131Y246307D01*
X242143Y246309D01*
X242171Y246307D01*
X244056Y246307D01*
X246006Y245499D01*
X247499Y244006D01*
X248307Y242056D01*
X248307Y239944D01*
X247499Y237994D01*
X246006Y236501D01*
X244056Y235693D01*
X241944Y235693D01*
X239994Y236501D01*
X238501Y237994D01*
X237693Y239944D01*
X237693Y241829D01*
X237681Y241927D01*
X237678Y242026D01*
X237661Y242084D01*
X237653Y242144D01*
X237617Y242236D01*
X237589Y242331D01*
X237559Y242384D01*
X237536Y242440D01*
X237478Y242520D01*
X237428Y242605D01*
X237362Y242681D01*
X237350Y242697D01*
X237340Y242705D01*
X237322Y242726D01*
X233781Y246266D01*
X233781Y328041D01*
X233769Y328139D01*
X233766Y328238D01*
X233749Y328296D01*
X233741Y328356D01*
X233705Y328448D01*
X233677Y328543D01*
X233647Y328596D01*
X233624Y328652D01*
X233566Y328732D01*
X233516Y328817D01*
X233450Y328893D01*
X233438Y328909D01*
X233428Y328917D01*
X233410Y328938D01*
X231938Y330410D01*
X231860Y330470D01*
X231788Y330538D01*
X231735Y330567D01*
X231687Y330604D01*
X231596Y330644D01*
X231509Y330692D01*
X231451Y330707D01*
X231395Y330731D01*
X231297Y330746D01*
X231201Y330771D01*
X231101Y330777D01*
X231081Y330781D01*
X231069Y330779D01*
X231041Y330781D01*
X228959Y330781D01*
X228861Y330769D01*
X228762Y330766D01*
X228704Y330749D01*
X228644Y330741D01*
X228552Y330705D01*
X228457Y330677D01*
X228405Y330647D01*
X228348Y330624D01*
X228268Y330566D01*
X228183Y330516D01*
X228107Y330450D01*
X228091Y330438D01*
X228083Y330428D01*
X228062Y330410D01*
X216742Y319090D01*
X216682Y319012D01*
X216614Y318940D01*
X216585Y318887D01*
X216548Y318839D01*
X216508Y318748D01*
X216460Y318661D01*
X216445Y318603D01*
X216421Y318547D01*
X216406Y318449D01*
X216381Y318353D01*
X216375Y318253D01*
X216371Y318233D01*
X216373Y318221D01*
X216371Y318193D01*
X216371Y131825D01*
X200590Y116045D01*
X200530Y115966D01*
X200462Y115894D01*
X200433Y115841D01*
X200396Y115793D01*
X200356Y115703D01*
X200308Y115616D01*
X200293Y115557D01*
X200269Y115502D01*
X200254Y115404D01*
X200229Y115308D01*
X200223Y115208D01*
X200219Y115188D01*
X200221Y115175D01*
X200219Y115147D01*
X200219Y110031D01*
X200236Y109893D01*
X200249Y109755D01*
X200256Y109736D01*
X200259Y109716D01*
X200310Y109587D01*
X200357Y109456D01*
X200368Y109439D01*
X200376Y109420D01*
X200457Y109308D01*
X200535Y109193D01*
X200551Y109179D01*
X200562Y109163D01*
X200670Y109074D01*
X200774Y108982D01*
X200792Y108973D01*
X200807Y108960D01*
X200933Y108901D01*
X201057Y108837D01*
X201077Y108833D01*
X201095Y108824D01*
X201231Y108798D01*
X201367Y108768D01*
X201388Y108768D01*
X201407Y108765D01*
X201546Y108773D01*
X201685Y108778D01*
X201705Y108783D01*
X201725Y108784D01*
X201857Y108827D01*
X201991Y108866D01*
X202008Y108876D01*
X202027Y108882D01*
X202145Y108957D01*
X202265Y109028D01*
X202286Y109046D01*
X202296Y109053D01*
X202310Y109068D01*
X202386Y109134D01*
X202688Y109436D01*
X210322Y117070D01*
X210382Y117148D01*
X210450Y117220D01*
X210479Y117273D01*
X210516Y117321D01*
X210556Y117412D01*
X210604Y117499D01*
X210619Y117557D01*
X210643Y117613D01*
X210658Y117711D01*
X210683Y117807D01*
X210689Y117907D01*
X210693Y117927D01*
X210691Y117939D01*
X210693Y117967D01*
X210693Y118056D01*
X211501Y120006D01*
X212994Y121499D01*
X214944Y122307D01*
X217056Y122307D01*
X219006Y121499D01*
X220499Y120006D01*
X221307Y118056D01*
X221307Y115944D01*
X220499Y113994D01*
X219006Y112501D01*
X217056Y111693D01*
X216967Y111693D01*
X216869Y111681D01*
X216770Y111678D01*
X216712Y111661D01*
X216652Y111653D01*
X216560Y111617D01*
X216465Y111589D01*
X216413Y111559D01*
X216356Y111536D01*
X216276Y111478D01*
X216191Y111428D01*
X216115Y111362D01*
X216099Y111350D01*
X216091Y111340D01*
X216070Y111322D01*
X208524Y103776D01*
X208451Y103682D01*
X208372Y103592D01*
X208354Y103556D01*
X208329Y103524D01*
X208282Y103415D01*
X208228Y103309D01*
X208219Y103270D01*
X208203Y103233D01*
X208184Y103115D01*
X208158Y102999D01*
X208159Y102959D01*
X208153Y102919D01*
X208164Y102800D01*
X208168Y102681D01*
X208179Y102642D01*
X208183Y102602D01*
X208223Y102490D01*
X208256Y102376D01*
X208277Y102341D01*
X208290Y102303D01*
X208357Y102204D01*
X208418Y102102D01*
X208458Y102056D01*
X208469Y102039D01*
X208484Y102026D01*
X208496Y102012D01*
X209307Y100056D01*
X209307Y97944D01*
X208499Y95994D01*
X207006Y94501D01*
X205056Y93693D01*
X204023Y93693D01*
X203886Y93676D01*
X203747Y93663D01*
X203728Y93656D01*
X203708Y93653D01*
X203579Y93602D01*
X203448Y93555D01*
X203431Y93544D01*
X203412Y93536D01*
X203300Y93455D01*
X203185Y93377D01*
X203171Y93361D01*
X203155Y93350D01*
X203066Y93242D01*
X202974Y93138D01*
X202965Y93120D01*
X202952Y93105D01*
X202893Y92979D01*
X202830Y92855D01*
X202825Y92835D01*
X202817Y92817D01*
X202790Y92680D01*
X202760Y92545D01*
X202761Y92524D01*
X202757Y92505D01*
X202765Y92366D01*
X202770Y92227D01*
X202775Y92207D01*
X202776Y92187D01*
X202819Y92055D01*
X202858Y91921D01*
X202868Y91904D01*
X202875Y91885D01*
X202949Y91767D01*
X203020Y91647D01*
X203038Y91626D01*
X203045Y91616D01*
X203060Y91602D01*
X203126Y91527D01*
X204974Y89678D01*
X205052Y89618D01*
X205124Y89550D01*
X205177Y89521D01*
X205225Y89484D01*
X205316Y89444D01*
X205403Y89396D01*
X205461Y89381D01*
X205517Y89357D01*
X205615Y89342D01*
X205711Y89317D01*
X205811Y89311D01*
X205831Y89307D01*
X205843Y89309D01*
X205871Y89307D01*
X206056Y89307D01*
X208006Y88499D01*
X209499Y87006D01*
X210307Y85056D01*
X210307Y82944D01*
X209499Y80994D01*
X208006Y79501D01*
X206056Y78693D01*
X203944Y78693D01*
X201994Y79501D01*
X200501Y80994D01*
X199693Y82944D01*
X199693Y85056D01*
X199954Y85685D01*
X199962Y85714D01*
X199975Y85740D01*
X200004Y85867D01*
X200038Y85992D01*
X200039Y86022D01*
X200045Y86051D01*
X200041Y86180D01*
X200043Y86310D01*
X200036Y86339D01*
X200035Y86368D01*
X199999Y86493D01*
X199969Y86619D01*
X199955Y86646D01*
X199947Y86674D01*
X199881Y86786D01*
X199820Y86901D01*
X199801Y86922D01*
X199785Y86948D01*
X199679Y87069D01*
X196638Y90110D01*
X194629Y92119D01*
X194629Y116214D01*
X194612Y116352D01*
X194599Y116491D01*
X194592Y116510D01*
X194589Y116530D01*
X194538Y116659D01*
X194491Y116790D01*
X194480Y116807D01*
X194472Y116825D01*
X194391Y116938D01*
X194313Y117053D01*
X194297Y117066D01*
X194286Y117083D01*
X194178Y117172D01*
X194074Y117263D01*
X194056Y117273D01*
X194041Y117286D01*
X193915Y117345D01*
X193791Y117408D01*
X193771Y117412D01*
X193753Y117421D01*
X193616Y117447D01*
X193481Y117478D01*
X193460Y117477D01*
X193441Y117481D01*
X193302Y117472D01*
X193163Y117468D01*
X193143Y117462D01*
X193123Y117461D01*
X192991Y117418D01*
X192857Y117380D01*
X192840Y117369D01*
X192821Y117363D01*
X192703Y117288D01*
X192583Y117218D01*
X192562Y117200D01*
X192552Y117193D01*
X192538Y117178D01*
X192463Y117112D01*
X190852Y115501D01*
X188902Y114693D01*
X186790Y114693D01*
X185820Y115095D01*
X185772Y115109D01*
X185727Y115130D01*
X185619Y115150D01*
X185513Y115179D01*
X185463Y115180D01*
X185414Y115189D01*
X185305Y115183D01*
X185195Y115184D01*
X185147Y115173D01*
X185097Y115170D01*
X184993Y115136D01*
X184886Y115110D01*
X184842Y115087D01*
X184795Y115072D01*
X184702Y115013D01*
X184605Y114961D01*
X184568Y114928D01*
X184526Y114901D01*
X184451Y114821D01*
X184369Y114748D01*
X184342Y114706D01*
X184308Y114670D01*
X184255Y114574D01*
X184195Y114482D01*
X184178Y114435D01*
X184154Y114391D01*
X184127Y114285D01*
X184091Y114181D01*
X184087Y114131D01*
X184075Y114083D01*
X184065Y113923D01*
X184065Y23316D01*
X183678Y22930D01*
X183618Y22852D01*
X183550Y22780D01*
X183521Y22727D01*
X183484Y22679D01*
X183444Y22588D01*
X183396Y22501D01*
X183381Y22443D01*
X183357Y22387D01*
X183342Y22289D01*
X183317Y22193D01*
X183311Y22093D01*
X183307Y22073D01*
X183309Y22061D01*
X183307Y22033D01*
X183307Y21944D01*
X182499Y19994D01*
X181006Y18501D01*
X179056Y17693D01*
X176944Y17693D01*
G37*
%LPD*%
%LPC*%
G36*
X291944Y100693D02*
X291944Y100693D01*
X289994Y101501D01*
X289932Y101564D01*
X289853Y101624D01*
X289781Y101692D01*
X289728Y101721D01*
X289680Y101758D01*
X289589Y101798D01*
X289503Y101846D01*
X289444Y101861D01*
X289388Y101885D01*
X289291Y101900D01*
X289195Y101925D01*
X289095Y101931D01*
X289074Y101935D01*
X289062Y101933D01*
X289034Y101935D01*
X241316Y101935D01*
X239930Y103322D01*
X239852Y103382D01*
X239780Y103450D01*
X239727Y103479D01*
X239679Y103516D01*
X239588Y103556D01*
X239501Y103604D01*
X239443Y103619D01*
X239387Y103643D01*
X239289Y103658D01*
X239193Y103683D01*
X239093Y103689D01*
X239073Y103693D01*
X239061Y103691D01*
X239033Y103693D01*
X238944Y103693D01*
X236994Y104501D01*
X235501Y105994D01*
X234693Y107944D01*
X234693Y110056D01*
X235501Y112006D01*
X236994Y113499D01*
X238944Y114307D01*
X241056Y114307D01*
X243006Y113499D01*
X244499Y112006D01*
X244978Y110848D01*
X244993Y110823D01*
X245002Y110795D01*
X245072Y110685D01*
X245136Y110572D01*
X245156Y110551D01*
X245172Y110526D01*
X245267Y110437D01*
X245357Y110344D01*
X245382Y110328D01*
X245404Y110308D01*
X245518Y110245D01*
X245628Y110177D01*
X245657Y110169D01*
X245682Y110154D01*
X245808Y110122D01*
X245932Y110084D01*
X245962Y110082D01*
X245990Y110075D01*
X246151Y110065D01*
X289034Y110065D01*
X289132Y110077D01*
X289231Y110080D01*
X289290Y110097D01*
X289350Y110105D01*
X289442Y110141D01*
X289537Y110169D01*
X289589Y110199D01*
X289645Y110222D01*
X289725Y110280D01*
X289811Y110330D01*
X289886Y110396D01*
X289903Y110408D01*
X289910Y110418D01*
X289932Y110436D01*
X289994Y110499D01*
X291944Y111307D01*
X294056Y111307D01*
X296006Y110499D01*
X297499Y109006D01*
X298307Y107056D01*
X298307Y104944D01*
X297499Y102994D01*
X296006Y101501D01*
X294056Y100693D01*
X291944Y100693D01*
G37*
%LPD*%
%LPC*%
G36*
X272944Y180693D02*
X272944Y180693D01*
X270994Y181501D01*
X269501Y182994D01*
X268693Y184944D01*
X268693Y185033D01*
X268681Y185131D01*
X268678Y185230D01*
X268661Y185288D01*
X268653Y185348D01*
X268617Y185440D01*
X268589Y185535D01*
X268559Y185587D01*
X268536Y185644D01*
X268478Y185724D01*
X268428Y185809D01*
X268362Y185885D01*
X268350Y185901D01*
X268340Y185909D01*
X268322Y185930D01*
X250935Y203316D01*
X250935Y216034D01*
X250923Y216132D01*
X250920Y216231D01*
X250903Y216290D01*
X250895Y216350D01*
X250859Y216442D01*
X250831Y216537D01*
X250801Y216589D01*
X250778Y216645D01*
X250720Y216725D01*
X250670Y216811D01*
X250604Y216886D01*
X250592Y216903D01*
X250582Y216910D01*
X250564Y216932D01*
X250501Y216994D01*
X249693Y218944D01*
X249693Y221056D01*
X250501Y223006D01*
X251994Y224499D01*
X253944Y225307D01*
X256056Y225307D01*
X258006Y224499D01*
X259499Y223006D01*
X260307Y221056D01*
X260307Y218944D01*
X259499Y216994D01*
X259436Y216932D01*
X259376Y216853D01*
X259308Y216781D01*
X259279Y216728D01*
X259242Y216680D01*
X259202Y216589D01*
X259154Y216503D01*
X259139Y216444D01*
X259115Y216388D01*
X259100Y216291D01*
X259075Y216195D01*
X259069Y216095D01*
X259065Y216074D01*
X259067Y216062D01*
X259065Y216034D01*
X259065Y207209D01*
X259077Y207111D01*
X259080Y207012D01*
X259097Y206954D01*
X259105Y206894D01*
X259141Y206802D01*
X259169Y206707D01*
X259199Y206655D01*
X259222Y206598D01*
X259280Y206518D01*
X259330Y206433D01*
X259396Y206357D01*
X259408Y206341D01*
X259418Y206333D01*
X259436Y206312D01*
X274070Y191678D01*
X274148Y191618D01*
X274220Y191550D01*
X274273Y191521D01*
X274321Y191484D01*
X274412Y191444D01*
X274499Y191396D01*
X274557Y191381D01*
X274613Y191357D01*
X274711Y191342D01*
X274807Y191317D01*
X274907Y191311D01*
X274927Y191307D01*
X274939Y191309D01*
X274967Y191307D01*
X275056Y191307D01*
X277006Y190499D01*
X278499Y189006D01*
X279307Y187056D01*
X279307Y184944D01*
X278499Y182994D01*
X277006Y181501D01*
X275056Y180693D01*
X272944Y180693D01*
G37*
%LPD*%
D10*
X177000Y243000D03*
D11*
X180000Y240000D01*
X180000Y168000D01*
D10*
X180000Y137000D03*
D11*
X180000Y168000D01*
D10*
X178000Y23000D03*
D11*
X180000Y25000D01*
X180000Y137000D01*
D10*
X198000Y168000D03*
D11*
X180000Y168000D01*
D10*
X230000Y327000D03*
X226000Y75000D03*
D11*
X226000Y81000D01*
X226000Y98000D01*
X226000Y323000D01*
X230000Y327000D01*
X226000Y81000D02*
X273000Y34000D01*
X329000Y34000D01*
D10*
X329000Y34000D03*
X235000Y96000D03*
D11*
X228000Y96000D01*
X226000Y98000D01*
D10*
X318000Y257000D03*
D12*
X300000Y275000D01*
X300000Y308000D01*
D10*
X300000Y308000D03*
X274000Y186000D03*
D11*
X255000Y205000D01*
X255000Y220000D01*
D10*
X255000Y220000D03*
X244000Y395000D03*
D11*
X204000Y355000D01*
X117000Y355000D01*
D10*
X117000Y355000D03*
D11*
X244000Y395000D02*
X244000Y302000D01*
X292000Y254000D01*
D10*
X292000Y254000D03*
X330000Y146000D03*
D11*
X330000Y216000D01*
X292000Y254000D01*
D10*
X293000Y106000D03*
D11*
X243000Y106000D01*
X240000Y109000D01*
D10*
X240000Y109000D03*
X216000Y117000D03*
D11*
X204000Y105000D01*
X204000Y99000D01*
D10*
X204000Y99000D03*
X207000Y209000D03*
D12*
X207000Y139154D01*
X187846Y120000D01*
D10*
X187846Y120000D03*
X205000Y84000D03*
X243000Y241000D03*
D12*
X236576Y329724D02*
X232724Y333576D01*
X227276Y333576D01*
X205000Y85700D02*
X205000Y84000D01*
X205000Y85700D02*
X197424Y93276D01*
X243000Y241000D02*
X236576Y247424D01*
X236576Y329724D01*
X227276Y333576D02*
X213576Y319876D01*
X213576Y132983D01*
X197424Y116831D01*
X197424Y93276D01*
M02*
