M48
;GenerationSoftware,Autodesk,EAGLE,9.6.2*%
;CreationDate,2021-02-17T19:49:14Z*%
FMAT,2
ICI,OFF
METRIC,TZ,000.000
T1C0.350
%
G90
M71
T1
X17700Y24300
X18000Y13700
X17800Y2300
X19800Y16800
X23000Y32700
X22600Y7500
X32900Y3400
X23500Y9600
X31800Y25700
X30000Y30800
X27400Y18600
X25500Y22000
X24400Y39500
X11700Y35500
X29200Y25400
X33000Y14600
X29300Y10600
X24000Y10900
X21600Y11700
X20400Y9900
X20700Y20900
X18785Y12000
X20500Y8400
X24300Y24100
M30