G04 EAGLE Gerber RS-274X export*
G75*
%MOMM*%
%FSLAX34Y34*%
%LPD*%
%INSolderpaste Top*%
%IPPOS*%
%AMOC8*
5,1,8,0,0,1.08239X$1,22.5*%
G01*
%ADD10R,3.000000X0.800000*%
%ADD11R,9.000000X10.000000*%
%ADD12R,1.100000X1.000000*%
%ADD13R,1.300000X1.500000*%
%ADD14R,1.800000X1.400000*%
%ADD15R,1.400000X1.800000*%
%ADD16R,1.500000X1.300000*%
%ADD17R,0.557200X1.096100*%
%ADD18R,3.987800X1.498600*%
%ADD19R,0.700000X0.900000*%
%ADD20R,0.900000X0.700000*%
%ADD21R,0.800000X0.800000*%
%ADD22R,1.300000X1.600000*%
%ADD23R,3.251200X6.451600*%
%ADD24R,1.549400X0.990600*%
%ADD25R,1.600000X1.300000*%
%ADD26R,0.457200X1.140600*%
%ADD27R,1.140600X0.457200*%


D10*
X157275Y251000D03*
X157275Y263700D03*
X157275Y276400D03*
X157275Y301800D03*
X157275Y314500D03*
X157275Y327200D03*
D11*
X56250Y289100D03*
D10*
X157275Y136700D03*
X157275Y149400D03*
X157275Y162100D03*
X157275Y187500D03*
X157275Y200200D03*
X157275Y212900D03*
D11*
X56250Y174800D03*
D10*
X157275Y22400D03*
X157275Y35100D03*
X157275Y47800D03*
X157275Y73200D03*
X157275Y85900D03*
X157275Y98600D03*
D11*
X56250Y60500D03*
D12*
X194900Y40600D03*
X194900Y23600D03*
D13*
X325100Y206800D03*
X306100Y206800D03*
X290100Y138300D03*
X271100Y138300D03*
D14*
X231700Y207000D03*
X231700Y173000D03*
D15*
X237600Y151300D03*
X203600Y151300D03*
D14*
X281300Y173000D03*
X281300Y207000D03*
X256100Y173000D03*
X256100Y207000D03*
D16*
X308300Y159500D03*
X308300Y178500D03*
D13*
X325300Y229300D03*
X306300Y229300D03*
D12*
X201800Y197100D03*
X201800Y180100D03*
D17*
X272800Y270111D03*
X282300Y270111D03*
X291800Y270111D03*
X291800Y298090D03*
X282300Y298090D03*
X272800Y298090D03*
D18*
X232800Y269700D03*
X232800Y305700D03*
D19*
X269900Y314900D03*
X282900Y314900D03*
D13*
X172500Y366900D03*
X191500Y366900D03*
X172500Y387400D03*
X191500Y387400D03*
D20*
X191900Y259300D03*
X191900Y246300D03*
X203900Y259500D03*
X203900Y246500D03*
D21*
X269500Y14500D03*
X269500Y29500D03*
X288400Y14500D03*
X288400Y29500D03*
D22*
X312700Y18700D03*
X331700Y18700D03*
D23*
X28900Y376800D03*
X215900Y377100D03*
X80000Y376400D03*
X146900Y374700D03*
D24*
X317250Y366000D03*
X317250Y398000D03*
X264750Y398000D03*
X264750Y366000D03*
D25*
X315000Y131500D03*
X315000Y112500D03*
D22*
X314500Y91000D03*
X295500Y91000D03*
D21*
X224000Y14500D03*
X224000Y29500D03*
X248000Y14500D03*
X248000Y29500D03*
D25*
X331000Y339500D03*
X331000Y320500D03*
X331000Y291500D03*
X331000Y272500D03*
X310000Y291500D03*
X310000Y272500D03*
D26*
X255750Y129755D03*
X249250Y129755D03*
X242750Y129755D03*
X236250Y129755D03*
X229750Y129755D03*
X223250Y129755D03*
X216750Y129755D03*
X210250Y129755D03*
D27*
X192245Y111750D03*
X192245Y105250D03*
X192245Y98750D03*
X192245Y92250D03*
X192245Y85750D03*
X192245Y79250D03*
X192245Y72750D03*
X192245Y66250D03*
D26*
X210250Y48245D03*
X216750Y48245D03*
X223250Y48245D03*
X229750Y48245D03*
X236250Y48245D03*
X242750Y48245D03*
X249250Y48245D03*
X255750Y48245D03*
D27*
X273755Y66250D03*
X273755Y72750D03*
X273755Y79250D03*
X273755Y85750D03*
X273755Y92250D03*
X273755Y98750D03*
X273755Y105250D03*
X273755Y111750D03*
M02*
